<?xml version="1.0" encoding="UTF-8"?>
<svg width="514.17" height="155.72" version="1.0" viewBox="0 0 564.893 155.72" xml:space="preserve" xmlns="http://www.w3.org/2000/svg">
<g transform="matrix(1.0987 0 0 1.0987 0 -7.682)">
		<path d="m20.591 73.837h-20.591v-25.351h21.173v-6.436c0-31.185 14.18-42.05 42.151-42.05 7.576 0 13.403 1.207 17.87 2.013l-2.136 24.947c-2.913-1.006-5.827-1.61-11.071-1.61-8.935 0-12.432 6.438-12.432 16.7v6.437h24.863v25.351h-24.863v79.462h-34.964v-79.463z" fill="#0063db"/>
		<rect x="98.675" y="2.415" width="34.964" height="150.89" fill="#0063db"/>
		<rect x="163.55" y="4.829" width="34.965" height="26.557" fill="#0063db"/>
		<rect x="163.55" y="48.486" width="34.965" height="104.82" fill="#0063db"/>
		<path d="m303.6 78.462c-6.41-4.021-12.82-5.833-21.17-5.833-15.15 0-26.81 10.864-26.81 28.971 0 16.7 13.6 27.56 28.75 27.56 7.97 0 15.93-1.81 21.76-5.03l0.78 26.96c-8.75 3.02-19.23 4.63-28.56 4.63-33.41 0-58.85-20.12-58.85-54.72 0-34.808 25.44-54.926 58.85-54.926 10.49 0 19.81 1.811 27.78 5.834l-2.53 26.554z" fill="#0063db"/>
		<polygon points="321.48 2.415 356.44 2.415 356.44 92.548 356.83 92.548 385.96 48.486 424.23 48.486 389.07 96.569 427.14 153.3 384.8 153.3 356.83 101.4 356.44 101.4 356.44 153.3 321.48 153.3" fill="#0063db"/>
		<path d="m512.42 77.456c-3.89-1.205-7.77-1.205-11.85-1.205-16.32 0-25.45 12.271-25.45 32.789v44.26h-34.96v-104.81l31.85-4e-3v19.314h0.39c6.02-13.279 14.76-21.728 29.92-21.728 4.07 0 8.35 0.603 11.85 1.206l-1.75 30.178z" fill="#ff0084"/>
</g></svg>
